<svg xmlns="http://www.w3.org/2000/svg" xmlns:xlink="http://www.w3.org/1999/xlink" width="512" height="512" viewBox="-1250 -1050 2560 2560"><defs><linearGradient xlink:href="#a" id="d" x1="150.961" x2="112.031" y1="192.352" y2="137.273" gradientTransform="matrix(2.50342 0 0 2.52759 387.387 889.984)" gradientUnits="userSpaceOnUse"/><linearGradient id="a"><stop offset="0" style="stop-color:#ffd43b;stop-opacity:1"/><stop offset="1" style="stop-color:#ffe873;stop-opacity:1"/></linearGradient><linearGradient xlink:href="#b" id="c" x1="26.649" x2="135.665" y1="20.604" y2="114.398" gradientTransform="matrix(2.50342 0 0 2.52759 387.387 889.984)" gradientUnits="userSpaceOnUse"/><linearGradient id="b"><stop offset="0" style="stop-color:#5a9fd4;stop-opacity:1"/><stop offset="1" style="stop-color:#306998;stop-opacity:1"/></linearGradient></defs><g transform="matrix(.77458 0 0 -.77458 30 667.637)"><g fill="none" stroke="silver" stroke-width="360"><path d="M-630 0v1320a630 630 0 0 0 1260 0V0"/><path stroke-width="180" d="M-630 0v1320a630 630 0 0 0 1260 0V0"/><path d="M-630 0v1320m1260 0V0M-630 1320a630 630 0 0 0 1260 0"/></g><path fill="#19528a" d="M0-1000-1000 0A635.674 635.674 0 1 0 0 767.327 635.674 635.674 0 1 0 1000 0Z"/><circle cy="296.5" r="209"/><path d="M-76 220.5-218.5-416h437L76 220.5Z"/></g><path d="M698.5 942.066c-20.398.094-39.878 1.834-57.018 4.867-50.493 8.92-59.66 27.592-59.66 62.025v45.475h119.32v15.159h-164.1c-34.679 0-65.044 20.843-74.541 60.495-10.956 45.45-11.442 73.81 0 121.267 8.481 35.325 28.737 60.495 63.415 60.495h41.025v-54.515c0-39.383 34.076-74.123 74.541-74.123h119.182c33.176 0 59.66-27.316 59.66-60.634v-113.62c0-32.336-27.28-56.627-59.66-62.024-20.498-3.412-41.766-4.962-62.164-4.867zm-64.528 36.575c12.325 0 22.39 10.23 22.39 22.807 0 12.533-10.065 22.668-22.39 22.668-12.369 0-22.39-10.135-22.39-22.668 0-12.578 10.021-22.807 22.39-22.807z" style="fill:url(#c);fill-opacity:1;stroke-width:4.4502"/><path d="M835.205 1069.592v52.985c0 41.079-34.827 75.653-74.541 75.653H641.482c-32.646 0-59.66 27.94-59.66 60.634v113.62c0 32.336 28.119 51.356 59.66 60.633 37.77 11.106 73.99 13.113 119.182 0 30.04-8.697 59.66-26.2 59.66-60.634v-45.475H701.143v-15.159H879.985c34.678 0 47.6-24.188 59.66-60.494 12.458-37.377 11.928-73.321 0-121.268-8.57-34.522-24.938-60.495-59.66-60.495zm-67.031 287.733c12.369 0 22.39 10.135 22.39 22.668 0 12.578-10.021 22.807-22.39 22.807-12.325 0-22.39-10.23-22.39-22.807 0-12.533 10.065-22.668 22.39-22.668z" style="fill:url(#d);fill-opacity:1;stroke-width:4.4502"/></svg>